<?xml version="1.0" encoding="UTF-8" standalone="no"?>
<svg xmlns="http://www.w3.org/2000/svg" width="642" height="6" viewBox="0 0 642 6">
  <path
    style="fill:none;stroke:#3c3c3c;stroke-width:3;stroke-linecap:round;stroke-linejoin:round"
    d="m 1.668,2.777 c 5.105,-0.23 16.43,-0.108 33.976,0.365 17.546,0.473 31.346,0.661 41.4,0.564 10.054,-0.097 15.896,-0.107 17.526,-0.028 1.63,0.079 9.716,0.101 24.257,0.068 14.541,-0.034 24.659,-0.144 30.352,-0.332 5.693,-0.188 10.542,-0.286 14.545,-0.295 4.004,-0.01 9.81,-0.185 17.42,-0.527 7.61,-0.343 12.923,-0.486 15.941,-0.43 3.018,0.056 7.351,0.282 12.999,0.678 5.648,0.396 15.356,0.463 29.123,0.202 13.767,-0.261 23.864,-0.296 30.292,-0.103 6.428,0.193 17.022,0.308 31.782,0.347 14.76,0.039 28.37,0 40.829,-0.117 12.459,-0.117 22.049,-0.315 28.768,-0.593 6.719,-0.278 14.789,-0.33 24.211,-0.156 9.422,0.174 26.802,0.194 52.142,0.059 25.34,-0.135 43.501,-0.174 54.484,-0.119 10.983,0.056 23.804,-0.052 38.463,-0.324 14.66,-0.271 25.891,-0.402 33.695,-0.391 7.803,0.011 17.779,0.239 29.927,0.684 12.148,0.445 19.344,0.611 21.589,0.497 2.245,-0.113 7.243,-0.204 14.995,-0.272" />
</svg>
