<?xml version="1.0" encoding="UTF-8"?>
<svg xmlns="http://www.w3.org/2000/svg" version="1.1" viewBox="0 0 982.73 153.83">
  <!-- Generator: Adobe Illustrator 30.5.1, SVG Export Plug-In . SVG Version: 2.1.4 Build 3)  -->
  <defs>
    <style>
      .st0 {
        fill: none;
      }

      .st0, .st1, .st2, .st3, .st4, .st5, .st6, .st7, .st8, .st9 {
        stroke: #000;
        stroke-width: 5px;
      }

      .st0, .st2, .st3, .st7, .st8 {
        stroke-linecap: round;
        stroke-linejoin: round;
      }

      .st1 {
        fill: #929497;
      }

      .st1, .st4, .st5, .st6, .st9 {
        stroke-miterlimit: 10;
      }

      .st2, .st6 {
        fill: #29b473;
      }

      .st3, .st10, .st9 {
        fill: #ff5e2b;
      }

      .st4, .st7, .st11, .st8 {
        fill: #ff9622;
      }

      .st5 {
        fill: #ffdd15;
      }

      .st5, .st7 {
        display: none;
      }
    </style>
  </defs>
  <g id="collective">
    <path class="st11" d="M620.58,64.96c4.72-.53,17-.83,20.05,19.16,3.17,20.75-4.62,30.65-14.18,31.98-9.43,1.31-20.07-2.17-22.24-20.63-2.17-18.46,5.9-29.34,16.36-30.51ZM616.88,94.29c.76,10.03,5.79,9.82,7.15,9.57,1.24-.23,5.13-.69,5.21-9.56.12-13.61-3.68-16.92-7.06-16.42s-6.26,3.78-5.3,16.4Z"/>
    <path class="st11" d="M603.66,64.28l-15.28,3.5s-2.12-24.33-19.18-22.19c-9.31,1.17-13.82,13.25-14.09,33.09-.28,20,1.95,34.55,12.77,34.65,10.16.09,13.79-11.93,13.79-11.93l13.72,5.89s-2.61,6.4-6.87,12.12c-4.64,6.23-11.51,10.9-20.3,10.9-29.75,0-29.15-40.03-28.9-53.31.18-9.87,2.31-49.44,26.88-52,16.24-1.69,32.62,9.45,37.47,39.28Z"/>
    <polygon class="st11" points="646.63 34.91 660.49 33.63 667.34 112.77 720.17 103.67 728.88 117.36 655.13 131.46 646.63 34.91"/>
    <polygon class="st11" points="672.26 29.7 687.32 27.44 690.7 83.97 720.53 76.7 726.15 92.86 678.48 99.35 672.26 29.7"/>
    <polygon class="st11" points="813.05 43.74 834.68 43.49 833.63 19.81 847.75 19.97 848.23 43.97 871.92 43.72 871.88 57.15 849.3 57.12 852 110.32 837.57 110.05 835.37 56.79 813.53 56.64 813.05 43.74"/>
    <path class="st11" d="M812.24,89l11.6-3.52s-4.42-19.52-23.87-18.44c-15.68.87-22.2,15.24-21.52,32.64s9.46,28.5,24.67,27.25c15.29-1.26,20.57-17.93,20.57-17.93l-12.05-4.52s-3.6,8.62-10.08,9.15-10.45-3.67-10.59-15.38c-.13-10.71,3.8-17.18,10.83-17.14,9.01.06,10.43,7.89,10.43,7.89Z"/>
    <path class="st11" d="M757.02,41.43c7.76.51,8.73,10.81,8.73,10.81l-20.79-1.4s.87-10.14,12.06-9.4ZM743.32,62.45l36.11,2.35s2.57-32.02-20.04-34.79c-21.74-2.66-30.06,16.98-31.13,30.7-1.07,13.72,3.26,26.71,17.96,29.39,11.71,2.14,24.15-2.43,24.15-2.43l-2.08-12.46s-9.24,3.6-16.89,2.62c-11.19-1.43-8.08-15.39-8.08-15.39Z"/>
    <polygon class="st11" points="884.83 38.18 897.78 33.75 913.62 81.21 926.2 21.04 941.01 23.75 920 109.09 908.95 108.94 884.83 38.18"/>
    <polygon class="st11" points="871.4 89.41 883.66 88.06 886.74 125.43 872.1 127 871.4 89.41"/>
    <path class="st11" d="M877.34,65.09c5.13-.31,8.28,1.99,8.75,5.9.54,4.46-3.62,8.5-8.58,8.93-5.57.48-9.18-2.79-9.81-6.09-.86-4.5,3.26-8.35,9.64-8.74Z"/>
    <path class="st11" d="M960.41,114.49c7.73-.21,13.11-8.7,13.11-8.7l9.12,5.68s-7.68,12.84-19.47,14.31c-19.9,2.48-27.5-17.41-28.42-28.98-.92-11.57,1.63-31.67,22.21-33.69,20.58-2.02,25.78,30.47,25.78,30.47l-34.89,4.62s1.55,16.58,12.56,16.28ZM948.33,88.27l20.27-2.73s-1.89-10.17-11.53-9.14-8.73,11.87-8.73,11.87Z"/>
  </g>
  <g id="rad">
    <path class="st10" d="M185.28,31.1s22.28-12.34,42.08-14.37c18.7-1.91,41.15,1.37,44.79,23.41,4.9,29.6-29.55,46.39-29.55,46.39l26.8,46.13-24.41,3.6-22.3-38.73-3.22,38.47-25.64-2.12,10.58-90.88-19.14-11.9ZM227.83,40.4l-1.82,23.87s21.99-8.67,19.37-18.2c-2.62-9.53-17.55-5.66-17.55-5.66Z"/>
    <path class="st10" d="M366.78,21.73l35.36,106.44-24.37,2.14-10.13-29.9-25.36,2.17-5.43,31.05h-27.5l24.69-111.17,32.74-.73ZM351.37,50.22l-7.17,29.98,17.2-1.43-10.03-28.55Z"/>
    <path class="st10" d="M414.65,20.76s26.63-5.5,51.92-.45,39.67,17.89,42.32,42.22c4.7,43.09-59.42,70.18-59.42,70.18l-16.2-93.08-18.62-18.87ZM459.48,50.34l5.68,35.91s19.56-9.17,16.35-22.6c-3.21-13.43-22.03-13.32-22.03-13.32Z"/>
    <path class="st10" d="M291.76,109.09c6.2.99,8.17,6.72,7.35,11.44-.88,5.07-4.67,11.17-12.02,10.26-7.35-.91-9.8-6.9-7.92-12.45s6.4-10.24,12.59-9.25Z"/>
    <path class="st10" d="M416.87,107.24c7.56-1.95,12.03,3.37,12.99,8.18s.32,9.94-5.77,12.77c-6.09,2.83-12.29-1.39-13.63-7.59-1.34-6.2,0-11.71,6.41-13.36Z"/>
    <path class="st10" d="M506.07,106.84c6.09-2.4,10.42.54,11.97,3.66,1.67,3.35,2.14,11.65-5.29,16.42-7.62,4.89-15.16-.54-14.57-8.02.52-6.59,4.4-10.69,7.88-12.06Z"/>
  </g>
  <g id="robot">
    <path class="st3" d="M88.28,10.95c-.96-1.76-2.81-7.81,4.3-8.41s5.95,5.99,5.21,7.88c-.87,2.25-4.35,6.93-4.35,6.93,0,0-4.01-4.3-5.16-6.4Z"/>
    <path class="st9" d="M124.81,20.56s2.37,2.95,5.33,7.67c3.99,6.36,6.11,13.06,6.11,13.06l-53.36.25s4.77-20.35,41.92-20.97Z"/>
    <path class="st8" d="M131.76,31.14l4.5,10.15-30.35.23-.75-8.6s5.32-1.21,14.84-1.82c7.53-.48,11.77.04,11.77.04Z"/>
    <path class="st8" d="M56.53,37.64S10.53,54.17,3.47,67.68c-3.59,6.88,2,21.46,30.32,6.66,12.02-6.28,32.52-17.57,39.89-27.45,1.56-2.1,2.29-5.88-3.73-10.68-4.56-3.63-13.42,1.43-13.42,1.43Z"/>
    <path class="st8" d="M124.81,20.56s-4.77-7.34-15.46-11.27c-6.03-2.21-14.29-3.38-25.7-1.09-23.02,4.62-33.76,33.35-33.76,33.35l56.01-.04s.31-6.43,4.42-12.69c2.21-3.37,7.11-7.36,14.49-8.27Z"/>
    <polygon class="st7" points="87.42 119.86 87.5 119.99 87.54 119.85 87.42 119.86"/>
    <polygon class="st7" points="96.35 119.18 96.43 119.3 96.47 119.17 96.35 119.18"/>
    <polygon class="st7" points="103.17 118.98 103.26 119.1 103.29 118.97 103.17 118.98"/>
    <path class="st4" d="M136.38,1.26"/>
    <g>
      <polygon class="st1" points="24.46 90.34 42.67 40.28 153.61 39.61 159.72 126.84 131.88 151.26 45.71 144.85 24.46 90.34"/>
      <polyline class="st0" points="42.67 40.28 62.87 120.39 159.72 126.84"/>
      <line class="st2" x1="62.87" y1="120.39" x2="45.71" y2="144.85"/>
    </g>
    <polygon class="st5" points="35.36 139.43 39.5 159.33 68.28 160.76 66.02 140 35.36 139.43"/>
    <polygon class="st5" points="83.76 140.67 115.05 141.17 116.86 163.88 86.41 161.93 83.76 140.67"/>
    <g>
      <line class="st6" x1="62.88" y1="55.41" x2="95.71" y2="76.69"/>
      <line class="st6" x1="93.46" y1="55.98" x2="67" y2="75.26"/>
    </g>
    <g>
      <line class="st6" x1="111.17" y1="56.65" x2="144.18" y2="79.8"/>
      <line class="st6" x1="142.38" y1="57.15" x2="113.8" y2="77.87"/>
    </g>
    <g>
      <polygon class="st4" points="76.4 87.86 79.19 110.01 140.08 114.28 138.07 92.06 76.4 87.86"/>
      <line class="st2" x1="90.17" y1="89.01" x2="91.4" y2="110.87"/>
      <line class="st2" x1="104.05" y1="89.74" x2="104.94" y2="111.82"/>
      <line class="st2" x1="116.88" y1="90.62" x2="118.24" y2="112.75"/>
      <line class="st2" x1="128.37" y1="91.4" x2="129.63" y2="113.55"/>
      <line class="st2" x1="77.74" y1="98.46" x2="139.09" y2="103.41"/>
    </g>
  </g>
</svg>